<svg width="38" height="41" viewBox="0 0 38 41" fill="none" xmlns="http://www.w3.org/2000/svg">
<path d="M13.2417 32.6294C15.1291 33.795 17.2943 34.3815 19.7374 34.3887L19.7834 41C16.9698 41 14.3672 40.4846 11.9756 39.4538C9.58397 38.4231 7.49132 36.9835 5.69763 35.1352C3.90393 33.287 2.49711 31.1188 1.47716 28.6307C0.492387 26.1426 0 23.4235 0 20.4733C0 17.5232 0.474802 14.8041 1.42441 12.316C2.40918 9.79237 3.78083 7.62419 5.53936 5.81144C7.33306 3.96316 9.4257 2.54139 11.8173 1.54616C14.2089 0.515388 16.8115 0 19.6252 0C22.4388 0 24.9535 0.479844 27.1692 1.43953C29.4201 2.39922 31.3194 3.6788 32.8669 5.27828C34.4144 6.84222 35.5222 8.5661 36.1905 10.4499L29.807 13.5423C29.0684 11.4807 27.8199 9.81014 26.0614 8.53056C24.3028 7.25098 22.1574 6.61118 19.6252 6.61118C17.1632 6.61118 14.9826 7.19766 13.0834 8.37061C11.2194 9.54356 9.75982 11.1608 8.70471 13.2224C7.68476 15.2839 7.17479 17.7009 7.17479 20.4733C7.17479 23.2458 7.70235 25.6805 8.75746 27.7776C9.84775 29.8392 11.3425 31.4564 13.2417 32.6294Z" fill="white"/>
<path d="M19.6252 18.2341L19.6678 24.3654H19.6252V18.2341Z" fill="white"/>
<path d="M19.6114 41L19.5652 34.4448C19.5806 34.4448 19.596 34.4449 19.6114 34.4449C21.6251 34.4449 23.4799 34.0572 25.1756 33.2819C26.8714 32.4713 28.2316 31.3435 29.2561 29.8985C30.2807 28.4183 30.7929 26.6738 30.7929 24.665V21.6517L34.0785 24.5064H19.4952L19.4524 18.427H38V22.3918C38 25.4227 37.4877 28.1012 36.4632 30.4272C35.4387 32.7532 34.0432 34.7092 32.2767 36.2951C30.5456 37.8458 28.5849 39.0264 26.3945 39.837C24.2041 40.6124 21.9431 41 19.6114 41Z" fill="#1A6BE6"/>
</svg>
